<svg width="1200" height="630" viewBox="0 0 1200 630" xmlns="http://www.w3.org/2000/svg">
  <defs>
    <!-- 테마별 배경 그라디언트 -->
    <linearGradient id="mainBg" x1="0%" y1="0%" x2="100%" y2="100%">
      <stop offset="0%" stop-color="#06281e" />
      <stop offset="50%" stop-color="#064e3b" />
      <stop offset="100%" stop-color="#021510" />
    </linearGradient>

    <!-- 악센트 그라디언트 -->
    <linearGradient id="accentGrad" x1="0%" y1="0%" x2="100%" y2="0%">
      <stop offset="0%" stop-color="#34d399" />
      <stop offset="100%" stop-color="#ffffff" />
    </linearGradient>

    <!-- 골드 텍스트 그라디언트 -->
    <linearGradient id="goldGrad" x1="0%" y1="0%" x2="100%" y2="0%">
      <stop offset="0%" stop-color="#f59e0b" />
      <stop offset="50%" stop-color="#fbbf24" />
      <stop offset="100%" stop-color="#fef08a" />
    </linearGradient>

    <!-- 우측 아트워크 패널 그라디언트 -->
    <linearGradient id="panelGrad" x1="0%" y1="0%" x2="100%" y2="100%">
      <stop offset="0%" stop-color="#1e293b" stop-opacity="0.95" />
      <stop offset="100%" stop-color="#0f172a" stop-opacity="0.98" />
    </linearGradient>

    <!-- 글로우 필터 -->
    <filter id="glowFilter" x="-50%" y="-50%" width="200%" height="200%">
      <feGaussianBlur stdDeviation="40" result="blur" />
    </filter>

    <!-- 카드 그림자 필터 -->
    <filter id="dropShadow" x="-10%" y="-10%" width="120%" height="120%">
      <feDropShadow dx="0" dy="12" stdDeviation="16" flood-color="#000000" flood-opacity="0.5" />
    </filter>
  </defs>

  <!-- 1. 배경 메인 -->
  <rect width="1200" height="630" fill="url(#mainBg)" />

  <!-- 2. 앰비언트 글로우 -->
  <circle cx="150" cy="120" r="280" fill="#34d399" opacity="0.12" filter="url(#glowFilter)" />
  <circle cx="1050" cy="480" r="320" fill="#34d399" opacity="0.14" filter="url(#glowFilter)" />

  <!-- 3. 테크 프레임 외곽 테두리 -->
  <rect x="36" y="36" width="1128" height="558" rx="28" fill="none" stroke="#34d399" stroke-opacity="0.3" stroke-width="1.5" />
  <rect x="44" y="44" width="1112" height="542" rx="22" fill="none" stroke="#ffffff" stroke-opacity="0.06" stroke-width="1" />

  <!-- 4. 좌측 상단 브랜드 헤더 -->
  <g transform="translate(90, 85)">
    <!-- 앱시안 테크 로고 아이콘 -->
    <rect x="0" y="0" width="46" height="46" rx="12" fill="#064e3b" stroke="#34d399" stroke-width="1.5" filter="url(#dropShadow)" />
    <!-- 터미널 프롬프트 심볼 (>_) -->
    <path d="M12 16 L22 23 L12 30" fill="none" stroke="#34d399" stroke-width="3" stroke-linecap="round" stroke-linejoin="round" />
    <line x1="24" y1="30" x2="34" y2="30" stroke="#ffffff" stroke-width="3" stroke-linecap="round" />
    
    <text x="62" y="24" font-family="'Pretendard', sans-serif" font-size="22" font-weight="900" fill="#ffffff" letter-spacing="-0.5">앱시안</text>
    <text x="135" y="24" font-family="'Pretendard', sans-serif" font-size="15" font-weight="700" fill="#34d399" letter-spacing="-0.2">absian</text>
    <text x="62" y="42" font-family="'Pretendard', sans-serif" font-size="13" font-weight="500" fill="#94a3b8">AI &amp; 테크 · 개발 실무 · 스마트 부업</text>
  </g>

  <!-- 5. 카테고리 태그 & 2026 테크 뱃지 -->
  <g transform="translate(90, 160)">
    <!-- 카테고리 뱃지 -->
    <rect x="0" y="0" width="180" height="38" rx="19" fill="#064e3b" stroke="#10b981" stroke-width="2" />
    <text x="18" y="24" font-family="'Pretendard', sans-serif" font-size="15" font-weight="800" fill="#a7f3d0">스마트 부업 &amp; 재테크</text>

    <!-- 테마 뱃지 -->
    <g transform="translate(192, 0)">
      <rect x="0" y="0" width="170" height="38" rx="19" fill="#1e293b" stroke="#34d399" stroke-width="1.5" />
      <text x="16" y="24" font-family="'Pretendard', sans-serif" font-size="14" font-weight="800" fill="#ffffff">★ 고수익 부업 공식</text>
    </g>
  </g>

  <!-- 6. 메인 타이틀 (좌측 영역, 최대 3줄 깔끔 배치) -->
  <text x="90" y="245" font-family="'Pretendard', sans-serif" font-size="46" font-weight="900" fill="#ffffff" letter-spacing="-1.5" filter="url(#dropShadow)">
    <tspan x="90" dy="0">2026 ISA 계좌 비과세 혜택</tspan><tspan x="90" dy="58">완벽 비교와 고배당 ETF 전략:</tspan><tspan x="90" dy="58">세금 0원으로 월급 외 현금흐름...</tspan>
  </text>

  <!-- 7. 핵심 요약 서브카피 박스 -->
  <g transform="translate(90, 465)">
    <rect x="0" y="0" width="580" height="54" rx="14" fill="#0f172a" fill-opacity="0.85" stroke="#ffffff" stroke-opacity="0.12" stroke-width="1" />
    <!-- 좌측 포인트 바 -->
    <rect x="0" y="0" width="6" height="54" rx="3" fill="#34d399" />
    <text x="24" y="33" font-family="'Pretendard', sans-serif" font-size="16" font-weight="500" fill="#e2e8f0">2026년 ISA 계좌의 확대된 비과세 한도와 납입 한도를 완벽 비교 분석합니다. 국내상장 고배당 ETF를 활용해 배...</text>
  </g>

  <!-- 8. 하단 푸터 인포 -->
  <g transform="translate(90, 555)">
    <circle cx="6" cy="-5" r="4" fill="#10b981" />
    <text x="18" y="0" font-family="'Pretendard', sans-serif" font-size="14" font-weight="700" fill="#34d399">실무 코드 &amp; 팩트체크 완료</text>
    <text x="185" y="0" font-family="'Pretendard', sans-serif" font-size="14" font-weight="400" fill="#94a3b8">• absianp.github.io</text>
  </g>

  <!-- 9. 우측 전용 맞춤형 테마 일러스트레이션 아트워크 -->
  
        <!-- ETF, ISA, 주식 복리 재테크 일러스트 -->
        <g transform="translate(940, 315)">
            <circle cx="0" cy="0" r="190" fill="#10b981" opacity="0.2" filter="url(#glowFilter)"/>
            <circle cx="0" cy="0" r="175" fill="#0f172a" stroke="#34d399" stroke-width="2.5" stroke-dasharray="8,6" opacity="0.8"/>
            <circle cx="0" cy="0" r="150" fill="url(#panelGrad)" stroke="#059669" stroke-width="2"/>

            <!-- 주식 차트 X/Y 축 -->
            <line x1="-70" y1="45" x2="70" y2="45" stroke="#64748b" stroke-width="2.5"/>
            <line x1="-70" y1="45" x2="-70" y2="-55" stroke="#64748b" stroke-width="2.5"/>

            <!-- 캔들스틱 차트 (녹색 양봉 & 빨간 음봉) -->
            <!-- 캔들 1 (양봉) -->
            <line x1="-48" y1="20" x2="-48" y2="40" stroke="#34d399" stroke-width="1.5"/>
            <rect x="-54" y="24" width="12" height="12" rx="2" fill="#10b981"/>
            
            <!-- 캔들 2 (양봉) -->
            <line x1="-24" y1="5" x2="-24" y2="30" stroke="#34d399" stroke-width="1.5"/>
            <rect x="-30" y="10" width="12" height="15" rx="2" fill="#10b981"/>
            
            <!-- 캔들 3 (양봉 급등) -->
            <line x1="0" y1="-20" x2="0" y2="15" stroke="#34d399" stroke-width="1.5"/>
            <rect x="-6" y="-12" width="12" height="20" rx="2" fill="#34d399"/>

            <!-- 캔들 4 (양봉 최고점) -->
            <line x1="24" y1="-50" x2="24" y2="-10" stroke="#34d399" stroke-width="1.5"/>
            <rect x="18" y="-42" width="12" height="24" rx="2" fill="#10b981"/>

            <!-- 복리 지수 급상승 곡선 (황금색) -->
            <path d="M-65 35 Q-10 25 50 -55" fill="none" stroke="#f59e0b" stroke-width="4"/>
            <circle cx="50" cy="-55" r="7" fill="#fbbf24" stroke="#ffffff" stroke-width="2"/>

            <!-- 골드 코인 엠블럼 -->
            <g transform="translate(-40, -50)">
                <circle cx="0" cy="0" r="18" fill="url(#goldGrad)" stroke="#b45309" stroke-width="2"/>
                <text x="0" y="6" font-family="'Pretendard', sans-serif" font-size="15" font-weight="900" fill="#78350f" text-anchor="middle">₩</text>
            </g>

            <!-- 하단 뱃지 -->
            <g transform="translate(0, 95)">
                <rect x="-55" y="-14" width="110" height="28" rx="14" fill="#064e3b" stroke="#10b981" stroke-width="2"/>
                <text x="0" y="5" font-family="'Pretendard', sans-serif" font-size="11" font-weight="900" fill="#a7f3d0" text-anchor="middle">ETF &amp; ISA 複利</text>
            </g>
        </g>
        
</svg>