<svg width="1200" height="630" viewBox="0 0 1200 630" xmlns="http://www.w3.org/2000/svg">
  <defs>
    <!-- 테마별 배경 그라디언트 -->
    <linearGradient id="mainBg" x1="0%" y1="0%" x2="100%" y2="100%">
      <stop offset="0%" stop-color="#0a0f1d" />
      <stop offset="50%" stop-color="#0f172a" />
      <stop offset="100%" stop-color="#030712" />
    </linearGradient>

    <!-- 악센트 그라디언트 -->
    <linearGradient id="accentGrad" x1="0%" y1="0%" x2="100%" y2="0%">
      <stop offset="0%" stop-color="#38bdf8" />
      <stop offset="100%" stop-color="#ffffff" />
    </linearGradient>

    <!-- 골드 텍스트 그라디언트 -->
    <linearGradient id="goldGrad" x1="0%" y1="0%" x2="100%" y2="0%">
      <stop offset="0%" stop-color="#f59e0b" />
      <stop offset="50%" stop-color="#fbbf24" />
      <stop offset="100%" stop-color="#fef08a" />
    </linearGradient>

    <!-- 우측 아트워크 패널 그라디언트 -->
    <linearGradient id="panelGrad" x1="0%" y1="0%" x2="100%" y2="100%">
      <stop offset="0%" stop-color="#1e293b" stop-opacity="0.95" />
      <stop offset="100%" stop-color="#0f172a" stop-opacity="0.98" />
    </linearGradient>

    <!-- 글로우 필터 -->
    <filter id="glowFilter" x="-50%" y="-50%" width="200%" height="200%">
      <feGaussianBlur stdDeviation="40" result="blur" />
    </filter>

    <!-- 카드 그림자 필터 -->
    <filter id="dropShadow" x="-10%" y="-10%" width="120%" height="120%">
      <feDropShadow dx="0" dy="12" stdDeviation="16" flood-color="#000000" flood-opacity="0.5" />
    </filter>
  </defs>

  <!-- 1. 배경 메인 -->
  <rect width="1200" height="630" fill="url(#mainBg)" />

  <!-- 2. 앰비언트 글로우 -->
  <circle cx="150" cy="120" r="280" fill="#38bdf8" opacity="0.12" filter="url(#glowFilter)" />
  <circle cx="1050" cy="480" r="320" fill="#38bdf8" opacity="0.14" filter="url(#glowFilter)" />

  <!-- 3. 테크 프레임 외곽 테두리 -->
  <rect x="36" y="36" width="1128" height="558" rx="28" fill="none" stroke="#38bdf8" stroke-opacity="0.3" stroke-width="1.5" />
  <rect x="44" y="44" width="1112" height="542" rx="22" fill="none" stroke="#ffffff" stroke-opacity="0.06" stroke-width="1" />

  <!-- 4. 좌측 상단 브랜드 헤더 -->
  <g transform="translate(90, 85)">
    <!-- 앱시안 테크 로고 아이콘 -->
    <rect x="0" y="0" width="46" height="46" rx="12" fill="#0c4a6e" stroke="#38bdf8" stroke-width="1.5" filter="url(#dropShadow)" />
    <!-- 터미널 프롬프트 심볼 (>_) -->
    <path d="M12 16 L22 23 L12 30" fill="none" stroke="#38bdf8" stroke-width="3" stroke-linecap="round" stroke-linejoin="round" />
    <line x1="24" y1="30" x2="34" y2="30" stroke="#ffffff" stroke-width="3" stroke-linecap="round" />
    
    <text x="62" y="24" font-family="'Pretendard', sans-serif" font-size="22" font-weight="900" fill="#ffffff" letter-spacing="-0.5">앱시안</text>
    <text x="135" y="24" font-family="'Pretendard', sans-serif" font-size="15" font-weight="700" fill="#38bdf8" letter-spacing="-0.2">absian</text>
    <text x="62" y="42" font-family="'Pretendard', sans-serif" font-size="13" font-weight="500" fill="#94a3b8">AI &amp; 테크 · 개발 실무 · 스마트 부업</text>
  </g>

  <!-- 5. 카테고리 태그 & 2026 테크 뱃지 -->
  <g transform="translate(90, 160)">
    <!-- 카테고리 뱃지 -->
    <rect x="0" y="0" width="180" height="38" rx="19" fill="#0c4a6e" stroke="#0284c7" stroke-width="2" />
    <text x="18" y="24" font-family="'Pretendard', sans-serif" font-size="15" font-weight="800" fill="#bae6fd">개발 &amp; 테크</text>

    <!-- 테마 뱃지 -->
    <g transform="translate(192, 0)">
      <rect x="0" y="0" width="170" height="38" rx="19" fill="#1e293b" stroke="#38bdf8" stroke-width="1.5" />
      <text x="16" y="24" font-family="'Pretendard', sans-serif" font-size="14" font-weight="800" fill="#ffffff">★ 2026 테크 실무</text>
    </g>
  </g>

  <!-- 6. 메인 타이틀 (좌측 영역, 최대 3줄 깔끔 배치) -->
  <text x="90" y="245" font-family="'Pretendard', sans-serif" font-size="46" font-weight="900" fill="#ffffff" letter-spacing="-1.5" filter="url(#dropShadow)">
    <tspan x="90" dy="0">PostgreSQL 인덱스</tspan><tspan x="90" dy="58">튜닝으로 느린 SQL 쿼리 성능</tspan><tspan x="90" dy="58">10배 개선하기: 실행 계획...</tspan>
  </text>

  <!-- 7. 핵심 요약 서브카피 박스 -->
  <g transform="translate(90, 465)">
    <rect x="0" y="0" width="580" height="54" rx="14" fill="#0f172a" fill-opacity="0.85" stroke="#ffffff" stroke-opacity="0.12" stroke-width="1" />
    <!-- 좌측 포인트 바 -->
    <rect x="0" y="0" width="6" height="54" rx="3" fill="#38bdf8" />
    <text x="24" y="33" font-family="'Pretendard', sans-serif" font-size="16" font-weight="500" fill="#e2e8f0">수 초씩 걸리던 PostgreSQL 느린 쿼리를 10배 이상 단축시키는 실전 인덱스 튜닝 가이드입니다. EXPLAIN...</text>
  </g>

  <!-- 8. 하단 푸터 인포 -->
  <g transform="translate(90, 555)">
    <circle cx="6" cy="-5" r="4" fill="#10b981" />
    <text x="18" y="0" font-family="'Pretendard', sans-serif" font-size="14" font-weight="700" fill="#38bdf8">실무 코드 &amp; 팩트체크 완료</text>
    <text x="185" y="0" font-family="'Pretendard', sans-serif" font-size="14" font-weight="400" fill="#94a3b8">• absianp.github.io</text>
  </g>

  <!-- 9. 우측 전용 맞춤형 테마 일러스트레이션 아트워크 -->
  
        <!-- Python, FastAPI, DB 백엔드 일러스트 -->
        <g transform="translate(940, 315)">
            <circle cx="0" cy="0" r="190" fill="#0284c7" opacity="0.2" filter="url(#glowFilter)"/>
            <circle cx="0" cy="0" r="175" fill="#0f172a" stroke="#38bdf8" stroke-width="2.5" stroke-dasharray="8,6" opacity="0.8"/>
            <circle cx="0" cy="0" r="150" fill="url(#panelGrad)" stroke="#0284c7" stroke-width="2"/>

            <!-- 3단 데이터베이스 원통 실린더 -->
            <g transform="translate(-35, 10)">
                <!-- 3단 (하단) -->
                <path d="M-40 25 C-40 38 40 38 40 25 L40 45 C40 58 -40 58 -40 45 Z" fill="#1e3a8a" stroke="#60a5fa" stroke-width="2"/>
                <ellipse cx="0" cy="25" rx="40" ry="12" fill="#2563eb" stroke="#60a5fa" stroke-width="2"/>
                
                <!-- 2단 (중단) -->
                <path d="M-40 0 C-40 13 40 13 40 0 L40 20 C40 33 -40 33 -40 20 Z" fill="#1e3a8a" stroke="#60a5fa" stroke-width="2"/>
                <ellipse cx="0" cy="0" rx="40" ry="12" fill="#2563eb" stroke="#60a5fa" stroke-width="2"/>
                
                <!-- 1단 (상단) -->
                <path d="M-40 -25 C-40 -12 40 -12 40 -25 L40 -5 C40 8 -40 8 -40 -5 Z" fill="#1e3a8a" stroke="#60a5fa" stroke-width="2"/>
                <ellipse cx="0" cy="-25" rx="40" ry="12" fill="#38bdf8" stroke="#60a5fa" stroke-width="2"/>
            </g>

            <!-- FastAPI 번개 & REST API 심볼 -->
            <g transform="translate(45, -25)">
                <circle cx="0" cy="0" r="32" fill="#042f2e" stroke="#059669" stroke-width="2.5" filter="url(#dropShadow)"/>
                <!-- 초고속 번개 -->
                <polygon points="-5,-16 6,-16 0,-3 9,-3 -7,18 -3,3 -10,3" fill="#34d399"/>
            </g>

            <!-- Python 로고 추상화 포인트 -->
            <g transform="translate(50, 45)">
                <rect x="-30" y="-12" width="60" height="24" rx="12" fill="#1e293b" stroke="#facc15" stroke-width="2"/>
                <text x="0" y="5" font-family="'Pretendard', sans-serif" font-size="11" font-weight="900" fill="#fef08a" text-anchor="middle">PYTHON</text>
            </g>

            <!-- 하단 뱃지 -->
            <g transform="translate(0, 95)">
                <rect x="-55" y="-14" width="110" height="28" rx="14" fill="#082f49" stroke="#38bdf8" stroke-width="2"/>
                <text x="0" y="5" font-family="'Pretendard', sans-serif" font-size="11" font-weight="900" fill="#bae6fd" text-anchor="middle">REST API &amp; DB</text>
            </g>
        </g>
        
</svg>